<svg xmlns="http://www.w3.org/2000/svg" viewBox="0 0 80 80"><title>ICONS OUTLINE</title><g id="Layer_1" data-name="Layer 1"><path d="M52.284,52.407A17.9,17.9,0,0,1,37.65,57.2a17.429,17.429,0,0,1,.759-34.644c8.727-.818,17.156,5.39,18.568,13.94a31.618,31.618,0,0,1-.05,7.44c-.208,2.764,3.273,6.4,5.931,5.816a3.841,3.841,0,0,0,2.262-1.642,12.435,12.435,0,0,0,1.566-4.227c2.127-14.337-7.793-28.145-21.825-30.5A27,27,0,1,0,39.3,66.913c3.262.083,6.529-.011,9.792.059a7.637,7.637,0,0,1,2.835.538,3.3,3.3,0,0,1,1.961,3.454,3.392,3.392,0,0,1-2.036,3.1,3.809,3.809,0,0,1-1.555.448c-7.488.022-15,.59-22.261-2.133A34.573,34.573,0,1,1,73.9,46.57a13.783,13.783,0,0,1-.531,1.882c-3.284,9.413-12.008,11.729-19.63,5.215C53.335,53.319,52.932,52.967,52.284,52.407ZM30.128,40.041a9.859,9.859,0,1,0,9.842-9.928A9.7,9.7,0,0,0,30.128,40.041Z"/></g></svg>