<svg xmlns="http://www.w3.org/2000/svg" viewBox="0 0 80 88"><title>ICONS OUTLINE</title><g id="Layer_1" data-name="Layer 1"><path d="M31.3,56.865a9.6,9.6,0,0,1,1.738.159l.358.081a9.873,9.873,0,0,1,4.12,2.04c3.779,3.1,4.4,8.969,1.409,13.359a11.951,11.951,0,0,1-6.417,4.982,19.663,19.663,0,0,1-4.942.627,27.162,27.162,0,0,1-10.89-2.546,19.866,19.866,0,0,0,3.408-6.07l.227-.67a75.79,75.79,0,0,1,2.636-7.186,9.553,9.553,0,0,1,5.987-4.481,9.694,9.694,0,0,1,2.366-.295m0-7.7A17.412,17.412,0,0,0,16.24,57.854c-.96,1.67-3.01,7.89-3.44,9.14a13.065,13.065,0,0,1-5.52,6.7,3.348,3.348,0,0,0,.09,5.66c8,4.876,14.73,6.459,20.2,6.459a27.229,27.229,0,0,0,7.085-.929,19.707,19.707,0,0,0,10.64-8.05c5.13-7.53,4.15-17.86-2.89-23.64a17.572,17.572,0,0,0-7.31-3.6l-.1-.03a17.294,17.294,0,0,0-3.692-.4Z"/><path d="M59.217,9.889a1.3,1.3,0,0,1,.665.182l5.978,3.453a1.35,1.35,0,0,1,.494,1.841L51.132,41.73a1.355,1.355,0,0,1-1.176.676,1.3,1.3,0,0,1-.666-.182l-5.978-3.452a1.348,1.348,0,0,1-.494-1.842L58.039,10.566a1.357,1.357,0,0,1,1.178-.677m0-7.7a9.046,9.046,0,0,0-7.845,4.525L36.15,33.08a9.047,9.047,0,0,0,3.312,12.36l5.978,3.452A9.043,9.043,0,0,0,57.8,45.58L73.022,19.215A9.048,9.048,0,0,0,69.71,6.855L63.732,3.4A8.994,8.994,0,0,0,59.216,2.19Z"/></g></svg>