<svg xmlns="http://www.w3.org/2000/svg" viewBox="0 0 80 80"><title>ICONS OUTLINE</title><g id="Layer_1" data-name="Layer 1"><path d="M40,9.45a15.3,15.3,0,1,1-15.3,15.3A15.317,15.317,0,0,1,40,9.45m0-7.7a23,23,0,1,0,23,23,23,23,0,0,0-23-23Z"/><path d="M30.2,59.635a.885.885,0,0,1,.237.033,36.3,36.3,0,0,0,19.125,0,.9.9,0,0,1,.238-.033.721.721,0,0,1,.637.356l4.008,7.325a.65.65,0,0,1,.036.595.759.759,0,0,1-.5.455,45.864,45.864,0,0,1-27.969,0,.759.759,0,0,1-.5-.455.647.647,0,0,1,.036-.595l4.008-7.325a.721.721,0,0,1,.637-.356m19.6-7.7a8.584,8.584,0,0,0-2.266.3,28.6,28.6,0,0,1-15.068,0,8.579,8.579,0,0,0-2.266-.3,8.4,8.4,0,0,0-7.392,4.36L18.8,63.619A8.438,8.438,0,0,0,23.67,75.7a53.563,53.563,0,0,0,32.66,0A8.437,8.437,0,0,0,61.2,63.619L57.192,56.3a8.4,8.4,0,0,0-7.392-4.36Z"/></g></svg>