<svg xmlns="http://www.w3.org/2000/svg" viewBox="0 0 80 80"><defs><style>.cls-1{fill:none;stroke:#000;stroke-miterlimit:10;stroke-width:7.7px;}</style></defs><title>ICONS OUTLINE</title><g id="Layer_1" data-name="Layer 1"><path d="M40,13.629c.387,0,.782.01,1.176.031a21.349,21.349,0,0,1,19.87,20.584,20.885,20.885,0,0,1-4.006,12.811c-1.29,1.762-4.1,4.963-6.813,8.059-3.322,3.788-6.758,7.705-9.3,11.037a1.8,1.8,0,0,1-.941.22,1.821,1.821,0,0,1-.913-.206c-2.45-3.225-5.809-7.059-9.058-10.767-2.892-3.3-5.882-6.714-7.2-8.566A21.047,21.047,0,0,1,40,13.629m0-7.7A28.748,28.748,0,0,0,16.532,51.281c3.08,4.34,11.83,13.51,16.43,19.57a8.743,8.743,0,0,0,7.022,3.22,8.791,8.791,0,0,0,7.048-3.23c4.61-6.05,13.14-15.03,16.22-19.24a28.638,28.638,0,0,0,5.49-17.51,28.936,28.936,0,0,0-27.16-28.12c-.531-.028-1.06-.042-1.584-.042Z"/><circle class="cls-1" cx="40.002" cy="36.111" r="8"/></g></svg>