<svg xmlns="http://www.w3.org/2000/svg" viewBox="0 0 86.67 77.95"><title>HOME PAGE FLOW2</title><g id="Layer_1" data-name="Layer 1"><path d="M41.53,49.34A17.74,17.74,0,0,0,35.4,44l-.09,0a17.37,17.37,0,0,0-20.25,3.16c-1.36,1.36-5,6.84-5.69,7.93a13,13,0,0,1-7.07,5,3.36,3.36,0,0,0-1.38,5.5C10.54,75.63,19.32,78,25.85,78a19.66,19.66,0,0,0,12.35-5C45.1,67,46.83,56.75,41.53,49.34Zm-14.2,18a8,8,0,1,1,8-8A8,8,0,0,1,27.33,67.35Z"/><rect x="49.73" y="-2.56" width="25" height="54" rx="8.42" transform="translate(35.51 -36.84) rotate(45)"/></g></svg>